<svg width="226" height="31" viewBox="0 0 226 31" fill="none" xmlns="http://www.w3.org/2000/svg">
<path d="M50.53 7.17478L40 23.837H42.9902L45.4452 19.948H51.1V23.837H53.6364V7.17478H50.53ZM51.1001 11.0057V17.4217H47.0394L51.1001 11.0057ZM59.0236 7.19803H56.4987V23.837H59.0236V7.19803ZM64.1779 14.2888V9.70115H67.7965C68.4248 9.70115 68.9639 9.92627 69.4137 10.3765C69.8559 10.8267 70.077 11.3701 70.077 12.0066C70.077 12.6354 69.8559 13.171 69.4137 13.6135C68.9638 14.0637 68.4247 14.2888 67.7965 14.2888H64.1779ZM69.6811 16.4314C70.5498 16.0588 71.2518 15.4767 71.7871 14.6849C72.3378 13.8775 72.6132 12.9848 72.6132 12.0068C72.6132 10.6716 72.14 9.53441 71.1937 8.59509C70.2551 7.64808 69.1226 7.17455 67.7962 7.17455H61.6526V23.8368H64.1774V16.8157H67.0281L70.6699 23.8368H73.5205L69.6811 16.4314ZM77.4188 21.3219L79.2804 21.3219C80.8783 21.3219 82.2474 20.7513 83.3876 19.6102C84.5201 18.4769 85.0864 17.1106 85.0864 15.5116C85.0864 13.9048 84.5201 12.5346 83.3876 11.4013C82.2473 10.2602 80.8783 9.6897 79.2804 9.6897H77.4188V21.3219ZM74.9056 23.837V7.17477H79.2804C81.5764 7.17477 83.5389 7.98985 85.1678 9.62C86.789 11.2502 87.5996 13.2141 87.5996 15.5118C87.5996 17.8018 86.789 19.7618 85.1678 21.3919C83.5389 23.0221 81.5764 23.8372 79.2804 23.8372L74.9056 23.837ZM92.1024 14.2888V9.70115H95.7209C96.3492 9.70115 96.8883 9.92627 97.3382 10.3765C97.7803 10.8267 98.0014 11.3701 98.0014 12.0066C98.0014 12.6354 97.7803 13.171 97.3382 13.6135C96.8883 14.0637 96.3492 14.2888 95.7209 14.2888H92.1024ZM97.6055 16.4314C98.4743 16.0588 99.1763 15.4767 99.7115 14.6849C100.262 13.8775 100.538 12.9848 100.538 12.0068C100.538 10.6716 100.064 9.53441 99.1181 8.59509C98.1796 7.64808 97.047 7.17455 95.7207 7.17455H89.577V23.8368H92.1018V16.8157H94.9525L98.5943 23.8368H101.445L97.6055 16.4314ZM106.274 11.2847C105.111 12.4491 104.529 13.8542 104.529 15.4998C104.529 17.1454 105.111 18.5505 106.274 19.7149C107.438 20.8793 108.842 21.4615 110.486 21.4615C112.13 21.4615 113.534 20.8793 114.698 19.7149C115.861 18.5505 116.443 17.1454 116.443 15.4998C116.443 13.8542 115.861 12.4491 114.698 11.2847C113.534 10.1204 112.13 9.53816 110.486 9.53816C108.842 9.53816 107.438 10.1204 106.274 11.2847ZM104.482 21.5082C102.822 19.847 101.992 17.8442 101.992 15.5001C101.992 13.1559 102.822 11.1531 104.482 9.4919C106.142 7.83074 108.143 7.00011 110.486 7.00011C112.828 7.00011 114.83 7.83068 116.49 9.4919C118.15 11.1531 118.98 13.1559 118.98 15.5001C118.98 17.8442 118.15 19.8471 116.49 21.5082C114.83 23.1694 112.828 24 110.486 24C108.143 24 106.142 23.1694 104.482 21.5082ZM123.494 14.2888L127.113 14.2888C127.741 14.2888 128.28 14.0637 128.73 13.6135C129.172 13.171 129.393 12.6354 129.393 12.0067C129.393 11.3701 129.172 10.8268 128.73 10.3765C128.28 9.92627 127.741 9.70116 127.113 9.70116H123.494V14.2888ZM123.494 23.837L120.969 23.837V7.17478H127.113C128.439 7.17478 129.572 7.64831 130.51 8.59533C131.457 9.53458 131.93 10.6718 131.93 12.007C131.93 13.3344 131.457 14.4677 130.51 15.407C129.572 16.3463 128.439 16.8159 127.113 16.8159H123.494L123.494 23.837ZM139.876 7.17478V23.837H142.401V16.7456H147.009V14.2189H142.401V9.70109H148.37V7.17437L139.876 7.17478ZM155.154 7.17478L144.624 23.837H147.614L150.069 19.948H155.724V23.837H158.26V7.17478H155.154ZM155.724 11.0057V17.4217H151.663L155.724 11.0057ZM164.648 19.7151C163.484 18.5507 162.902 17.1456 162.902 15.5C162.902 13.8544 163.484 12.4493 164.648 11.2849C165.811 10.1127 167.215 9.52672 168.86 9.52672C169.868 9.52672 170.811 9.76736 171.687 10.2486V7.4774C170.772 7.15913 169.829 7 168.86 7C166.517 7 164.516 7.83058 162.856 9.49179C161.196 11.153 160.366 13.1558 160.366 15.4999C160.366 17.8441 161.196 19.8469 162.856 21.5081C164.516 23.1693 166.517 23.9999 168.86 23.9999C169.829 23.9999 170.772 23.8369 171.687 23.5109V20.7513C170.811 21.2248 169.868 21.4615 168.86 21.4615C167.215 21.4615 165.811 20.8795 164.648 19.7151ZM173.2 7.17478V9.70151H176.725V23.8372H179.262V9.70151H182.787V7.17478H173.2ZM186.627 11.2847C185.463 12.4491 184.881 13.8542 184.881 15.4998C184.881 17.1454 185.463 18.5505 186.627 19.7149C187.79 20.8793 189.194 21.4615 190.839 21.4615C192.483 21.4615 193.887 20.8793 195.05 19.7149C196.214 18.5505 196.796 17.1454 196.796 15.4998C196.796 13.8542 196.214 12.4491 195.05 11.2847C193.887 10.1204 192.483 9.53816 190.839 9.53816C189.194 9.53816 187.79 10.1204 186.627 11.2847ZM184.835 21.5082C183.175 19.847 182.345 17.8442 182.345 15.5001C182.345 13.1559 183.175 11.1531 184.835 9.4919C186.495 7.83074 188.496 7.00011 190.838 7.00011C193.181 7.00011 195.182 7.83068 196.842 9.4919C198.502 11.1531 199.332 13.1559 199.332 15.5001C199.332 17.8442 198.502 19.8471 196.842 21.5082C195.182 23.1694 193.181 24 190.838 24C188.496 24 186.495 23.1694 184.835 21.5082ZM203.684 14.2888V9.70115H207.302C207.931 9.70115 208.47 9.92627 208.92 10.3765C209.362 10.8267 209.583 11.3701 209.583 12.0066C209.583 12.6354 209.362 13.171 208.92 13.6135C208.47 14.0637 207.931 14.2888 207.302 14.2888H203.684ZM209.187 16.4314C210.056 16.0588 210.758 15.4767 211.293 14.6849C211.844 13.8775 212.119 12.9848 212.119 12.0068C212.119 10.6716 211.646 9.53441 210.7 8.59509C209.761 7.64808 208.628 7.17455 207.302 7.17455H201.158V23.8368H203.683V16.8157H206.534L210.176 23.8368H213.026L209.187 16.4314ZM223.068 7.17478L219.543 13.1597L216.017 7.17478H213.085L218.274 16.001V23.8376H220.811V16.001L226 7.17478H223.068Z" fill="white"/>
<rect width="30.7231" height="30.7231" rx="8.9418" fill="url(#paint0_linear_2091_16267)"/>
<path d="M20.7024 9.08315C20.7024 9.0568 20.7024 9.03078 20.7024 9.00477C20.7017 8.36109 20.4457 7.74399 19.9908 7.28884C19.5358 6.8337 18.9189 6.57767 18.2754 6.57694C18.0122 6.57672 17.7507 6.61996 17.5016 6.70492C17.02 6.0669 16.3502 5.59643 15.5868 5.36001C14.8234 5.12359 14.005 5.13318 13.2473 5.38742C12.4896 5.64167 11.831 6.1277 11.3645 6.77683C10.898 7.42595 10.6473 8.20532 10.6478 9.00477V9.02385C9.85475 9.11195 9.12558 9.50062 8.61017 10.11C8.09475 10.7193 7.83227 11.503 7.87666 12.3C7.92106 13.0969 8.26896 13.8466 8.84886 14.3949C9.42876 14.9431 10.1966 15.2484 10.9945 15.2478H20.009C20.7759 15.2474 21.5158 14.9645 22.0875 14.4532C22.6592 13.9418 23.0226 13.2377 23.1084 12.4753C23.1941 11.7129 22.9962 10.9457 22.5524 10.32C22.1086 9.69429 21.4501 9.254 20.7024 9.08315ZM20.009 14.5541H10.9945C10.6758 14.553 10.3604 14.489 10.0664 14.366C9.77238 14.2429 9.50547 14.0631 9.28091 13.8369C9.05635 13.6106 8.87853 13.3423 8.75762 13.0474C8.6367 12.7524 8.57505 12.4364 8.57619 12.1176C8.57733 11.7988 8.64123 11.4833 8.76425 11.1892C8.88727 10.895 9.067 10.628 9.29317 10.4034C9.51934 10.1788 9.78752 10.0009 10.0824 9.87993C10.3773 9.75897 10.6931 9.6973 11.0118 9.69844C11.0604 9.69868 11.1085 9.6887 11.153 9.66914C11.1975 9.64959 11.2374 9.62089 11.2701 9.58491C11.3028 9.54894 11.3276 9.50649 11.3428 9.46032C11.358 9.41415 11.3634 9.3653 11.3585 9.31692C11.3485 9.21287 11.3429 9.10882 11.3429 9.00477C11.343 8.33082 11.5613 7.67502 11.965 7.13552C12.3688 6.59603 12.9364 6.20185 13.5828 6.01199C14.2292 5.82214 14.9197 5.84681 15.551 6.08233C16.1822 6.31784 16.7202 6.75152 17.0845 7.31847C17.1303 7.3895 17.2005 7.44136 17.2818 7.46429C17.3631 7.48722 17.45 7.47964 17.5262 7.44298C17.7597 7.32956 18.0159 7.27062 18.2754 7.2706C18.735 7.27115 19.1756 7.45404 19.5006 7.77914C19.8256 8.10424 20.0084 8.54501 20.009 9.00477C20.0085 9.10705 19.9989 9.20908 19.9802 9.30964C19.9719 9.35633 19.9733 9.40423 19.9842 9.45038C19.9951 9.49653 20.0154 9.53995 20.0438 9.57795C20.0721 9.61594 20.108 9.64772 20.1491 9.67131C20.1902 9.6949 20.2358 9.7098 20.2829 9.71509C20.8969 9.78735 21.4602 10.0913 21.8578 10.5649C22.2554 11.0385 22.4574 11.6461 22.4224 12.2635C22.3875 12.881 22.1183 13.4619 21.6698 13.8876C21.2212 14.3132 20.6272 14.5516 20.009 14.5541Z" fill="white"/>
<path d="M20.009 14.5541H10.9945C10.6758 14.553 10.3604 14.489 10.0664 14.366C9.77238 14.2429 9.50547 14.0631 9.28091 13.8369C9.05635 13.6106 8.87853 13.3423 8.75762 13.0474C8.6367 12.7524 8.57505 12.4364 8.57619 12.1176C8.57733 11.7988 8.64123 11.4833 8.76425 11.1892C8.88727 10.895 9.067 10.628 9.29317 10.4034C9.51934 10.1788 9.78752 10.0009 10.0824 9.87993C10.3773 9.75897 10.6931 9.6973 11.0118 9.69844C11.0604 9.69868 11.1085 9.6887 11.153 9.66914C11.1975 9.64959 11.2374 9.62089 11.2701 9.58491C11.3028 9.54894 11.3276 9.50649 11.3428 9.46032C11.358 9.41415 11.3634 9.3653 11.3585 9.31692C11.3485 9.21287 11.3429 9.10882 11.3429 9.00477C11.343 8.33082 11.5613 7.67502 11.965 7.13552C12.3688 6.59603 12.9364 6.20185 13.5828 6.01199C14.2292 5.82214 14.9197 5.84681 15.551 6.08233C16.1822 6.31784 16.7202 6.75152 17.0845 7.31847C17.1303 7.3895 17.2005 7.44136 17.2818 7.46429C17.3631 7.48722 17.45 7.47964 17.5262 7.44298C17.7597 7.32956 18.0159 7.27062 18.2754 7.2706C18.735 7.27115 19.1756 7.45404 19.5006 7.77914C19.8256 8.10424 20.0084 8.54501 20.009 9.00477C20.0085 9.10705 19.9989 9.20908 19.9802 9.30964C19.9719 9.35633 19.9733 9.40423 19.9842 9.45038C19.9951 9.49653 20.0154 9.53995 20.0438 9.57795C20.0721 9.61594 20.108 9.64772 20.1491 9.67131C20.1902 9.6949 20.2358 9.7098 20.2829 9.71509C20.8969 9.78735 21.4602 10.0913 21.8578 10.5649C22.2554 11.0385 22.4574 11.6461 22.4224 12.2635C22.3875 12.881 22.1183 13.4619 21.6698 13.8876C21.2212 14.3132 20.6272 14.5516 20.009 14.5541Z" fill="white"/>
<path d="M12.7279 20.1035H12.0345V20.4503C11.8506 20.4503 11.6742 20.5234 11.5442 20.6535C11.4141 20.7836 11.3411 20.96 11.3411 21.144V21.4908C11.3411 21.6748 11.4141 21.8513 11.5442 21.9813C11.6742 22.1114 11.8506 22.1845 12.0345 22.1845H12.7279V22.5314H11.3411V23.225H12.0345V23.5719H12.7279V23.225C12.9118 23.225 13.0882 23.1519 13.2182 23.0218C13.3483 22.8918 13.4213 22.7153 13.4213 22.5314V22.1845C13.4213 22.0005 13.3483 21.8241 13.2182 21.694C13.0882 21.5639 12.9118 21.4908 12.7279 21.4908H12.0345V21.144H13.4213V20.4503H12.7279V20.1035Z" fill="white"/>
<path d="M16.8888 18.7163H16.1954V19.0631C16.0115 19.0631 15.8351 19.1362 15.7051 19.2663C15.575 19.3964 15.502 19.5728 15.502 19.7568V20.1036C15.502 20.2876 15.575 20.4641 15.7051 20.5941C15.8351 20.7242 16.0115 20.7973 16.1954 20.7973H16.8888V21.1441H15.502V21.8378H16.1954V22.1846H16.8888V21.8378C17.0727 21.8378 17.2491 21.7647 17.3791 21.6346C17.5092 21.5046 17.5822 21.3281 17.5822 21.1441V20.7973C17.5822 20.6133 17.5092 20.4369 17.3791 20.3068C17.2491 20.1767 17.0727 20.1036 16.8888 20.1036H16.1954V19.7568H17.5822V19.0631H16.8888V18.7163Z" fill="white"/>
<path d="M20.3558 22.5315H19.6624V22.8783C19.4785 22.8783 19.3021 22.9514 19.1721 23.0815C19.0421 23.2116 18.969 23.388 18.969 23.572V23.9188C18.969 24.1028 19.0421 24.2792 19.1721 24.4093C19.3021 24.5394 19.4785 24.6125 19.6624 24.6125H20.3558V24.9593H18.969V25.653H19.6624V25.9998H20.3558V25.653C20.5397 25.653 20.7161 25.5799 20.8462 25.4498C20.9762 25.3197 21.0493 25.1433 21.0493 24.9593V24.6125C21.0493 24.4285 20.9762 24.2521 20.8462 24.122C20.7161 23.9919 20.5397 23.9188 20.3558 23.9188H19.6624V23.572H21.0493V22.8783H20.3558V22.5315Z" fill="white"/>
<path d="M11.6878 15.9419H10.9944V16.6356H11.6878V15.9419Z" fill="white"/>
<path d="M11.6878 17.3289H10.9944V18.0225H11.6878V17.3289Z" fill="white"/>
<path d="M11.6878 18.7163H10.9944V19.41H11.6878V18.7163Z" fill="white"/>
<path d="M14.1151 16.635H13.4216V17.3287H14.1151V16.635Z" fill="white"/>
<path d="M16.8885 15.9419H16.1951V16.6356H16.8885V15.9419Z" fill="white"/>
<path d="M14.1151 18.0225H13.4216V18.7161H14.1151V18.0225Z" fill="white"/>
<path d="M16.8885 17.3289H16.1951V18.0225H16.8885V17.3289Z" fill="white"/>
<path d="M20.3558 16.9819H19.6624V17.6756H20.3558V16.9819Z" fill="white"/>
<path d="M20.3558 18.3694H19.6624V19.0631H20.3558V18.3694Z" fill="white"/>
<path d="M20.3558 19.7566H19.6624V20.4503H20.3558V19.7566Z" fill="white"/>
<path d="M20.3558 21.1436H19.6624V21.8372H20.3558V21.1436Z" fill="white"/>
<defs>
<linearGradient id="paint0_linear_2091_16267" x1="0" y1="0" x2="31" y2="31" gradientUnits="userSpaceOnUse">
<stop stop-color="#6155DE"/>
<stop offset="1" stop-color="#3A2FAC"/>
</linearGradient>
</defs>
</svg>
