<svg width="31" height="31" viewBox="0 0 31 31" fill="none" xmlns="http://www.w3.org/2000/svg">
<rect width="30.7231" height="30.7231" rx="8.9418" fill="url(#paint0_linear_2091_16269)"/>
<path d="M20.7024 9.08315C20.7024 9.0568 20.7024 9.03078 20.7024 9.00477C20.7017 8.36109 20.4457 7.74399 19.9908 7.28884C19.5358 6.8337 18.9189 6.57767 18.2754 6.57694C18.0122 6.57672 17.7507 6.61996 17.5016 6.70492C17.02 6.0669 16.3502 5.59643 15.5868 5.36001C14.8234 5.12359 14.005 5.13318 13.2473 5.38742C12.4896 5.64167 11.831 6.1277 11.3645 6.77683C10.898 7.42595 10.6473 8.20532 10.6478 9.00477V9.02385C9.85475 9.11195 9.12558 9.50062 8.61017 10.11C8.09475 10.7193 7.83227 11.503 7.87666 12.3C7.92106 13.0969 8.26896 13.8466 8.84886 14.3949C9.42876 14.9431 10.1966 15.2484 10.9945 15.2478H20.009C20.7759 15.2474 21.5158 14.9645 22.0875 14.4532C22.6592 13.9418 23.0226 13.2377 23.1084 12.4753C23.1941 11.7129 22.9962 10.9457 22.5524 10.32C22.1086 9.69429 21.4501 9.254 20.7024 9.08315ZM20.009 14.5541H10.9945C10.6758 14.553 10.3604 14.489 10.0664 14.366C9.77238 14.2429 9.50547 14.0631 9.28091 13.8369C9.05635 13.6106 8.87853 13.3423 8.75762 13.0474C8.6367 12.7524 8.57505 12.4364 8.57619 12.1176C8.57733 11.7988 8.64123 11.4833 8.76425 11.1892C8.88727 10.895 9.067 10.628 9.29317 10.4034C9.51934 10.1788 9.78752 10.0009 10.0824 9.87993C10.3773 9.75897 10.6931 9.6973 11.0118 9.69844C11.0604 9.69868 11.1085 9.6887 11.153 9.66914C11.1975 9.64959 11.2374 9.62089 11.2701 9.58491C11.3028 9.54894 11.3276 9.50649 11.3428 9.46032C11.358 9.41415 11.3634 9.3653 11.3585 9.31692C11.3485 9.21287 11.3429 9.10882 11.3429 9.00477C11.343 8.33082 11.5613 7.67502 11.965 7.13552C12.3688 6.59603 12.9364 6.20185 13.5828 6.01199C14.2292 5.82214 14.9197 5.84681 15.551 6.08233C16.1822 6.31784 16.7202 6.75152 17.0845 7.31847C17.1303 7.3895 17.2005 7.44136 17.2818 7.46429C17.3631 7.48722 17.45 7.47964 17.5262 7.44298C17.7597 7.32956 18.0159 7.27062 18.2754 7.2706C18.735 7.27115 19.1756 7.45404 19.5006 7.77914C19.8256 8.10424 20.0084 8.54501 20.009 9.00477C20.0085 9.10705 19.9989 9.20908 19.9802 9.30964C19.9719 9.35633 19.9733 9.40423 19.9842 9.45038C19.9951 9.49653 20.0154 9.53995 20.0438 9.57795C20.0721 9.61594 20.108 9.64772 20.1491 9.67131C20.1902 9.6949 20.2358 9.7098 20.2829 9.71509C20.8969 9.78735 21.4602 10.0913 21.8578 10.5649C22.2554 11.0385 22.4574 11.6461 22.4224 12.2635C22.3875 12.881 22.1183 13.4619 21.6698 13.8876C21.2212 14.3132 20.6272 14.5516 20.009 14.5541Z" fill="white"/>
<path d="M20.009 14.5541H10.9945C10.6758 14.553 10.3604 14.489 10.0664 14.366C9.77238 14.2429 9.50547 14.0631 9.28091 13.8369C9.05635 13.6106 8.87853 13.3423 8.75762 13.0474C8.6367 12.7524 8.57505 12.4364 8.57619 12.1176C8.57733 11.7988 8.64123 11.4833 8.76425 11.1892C8.88727 10.895 9.067 10.628 9.29317 10.4034C9.51934 10.1788 9.78752 10.0009 10.0824 9.87993C10.3773 9.75897 10.6931 9.6973 11.0118 9.69844C11.0604 9.69868 11.1085 9.6887 11.153 9.66914C11.1975 9.64959 11.2374 9.62089 11.2701 9.58491C11.3028 9.54894 11.3276 9.50649 11.3428 9.46032C11.358 9.41415 11.3634 9.3653 11.3585 9.31692C11.3485 9.21287 11.3429 9.10882 11.3429 9.00477C11.343 8.33082 11.5613 7.67502 11.965 7.13552C12.3688 6.59603 12.9364 6.20185 13.5828 6.01199C14.2292 5.82214 14.9197 5.84681 15.551 6.08233C16.1822 6.31784 16.7202 6.75152 17.0845 7.31847C17.1303 7.3895 17.2005 7.44136 17.2818 7.46429C17.3631 7.48722 17.45 7.47964 17.5262 7.44298C17.7597 7.32956 18.0159 7.27062 18.2754 7.2706C18.735 7.27115 19.1756 7.45404 19.5006 7.77914C19.8256 8.10424 20.0084 8.54501 20.009 9.00477C20.0085 9.10705 19.9989 9.20908 19.9802 9.30964C19.9719 9.35633 19.9733 9.40423 19.9842 9.45038C19.9951 9.49653 20.0154 9.53995 20.0438 9.57795C20.0721 9.61594 20.108 9.64772 20.1491 9.67131C20.1902 9.6949 20.2358 9.7098 20.2829 9.71509C20.8969 9.78735 21.4602 10.0913 21.8578 10.5649C22.2554 11.0385 22.4574 11.6461 22.4224 12.2635C22.3875 12.881 22.1183 13.4619 21.6698 13.8876C21.2212 14.3132 20.6272 14.5516 20.009 14.5541Z" fill="white"/>
<path d="M12.7279 20.1035H12.0345V20.4503C11.8506 20.4503 11.6742 20.5234 11.5442 20.6535C11.4141 20.7836 11.3411 20.96 11.3411 21.144V21.4908C11.3411 21.6748 11.4141 21.8513 11.5442 21.9813C11.6742 22.1114 11.8506 22.1845 12.0345 22.1845H12.7279V22.5314H11.3411V23.225H12.0345V23.5719H12.7279V23.225C12.9118 23.225 13.0882 23.1519 13.2182 23.0218C13.3483 22.8918 13.4213 22.7153 13.4213 22.5314V22.1845C13.4213 22.0005 13.3483 21.8241 13.2182 21.694C13.0882 21.5639 12.9118 21.4908 12.7279 21.4908H12.0345V21.144H13.4213V20.4503H12.7279V20.1035Z" fill="white"/>
<path d="M16.8888 18.7163H16.1954V19.0631C16.0115 19.0631 15.8351 19.1362 15.7051 19.2663C15.575 19.3964 15.502 19.5728 15.502 19.7568V20.1036C15.502 20.2876 15.575 20.4641 15.7051 20.5941C15.8351 20.7242 16.0115 20.7973 16.1954 20.7973H16.8888V21.1441H15.502V21.8378H16.1954V22.1846H16.8888V21.8378C17.0727 21.8378 17.2491 21.7647 17.3791 21.6346C17.5092 21.5046 17.5822 21.3281 17.5822 21.1441V20.7973C17.5822 20.6133 17.5092 20.4369 17.3791 20.3068C17.2491 20.1767 17.0727 20.1036 16.8888 20.1036H16.1954V19.7568H17.5822V19.0631H16.8888V18.7163Z" fill="white"/>
<path d="M20.3558 22.5315H19.6624V22.8783C19.4785 22.8783 19.3021 22.9514 19.1721 23.0815C19.0421 23.2116 18.969 23.388 18.969 23.572V23.9188C18.969 24.1028 19.0421 24.2792 19.1721 24.4093C19.3021 24.5394 19.4785 24.6125 19.6624 24.6125H20.3558V24.9593H18.969V25.653H19.6624V25.9998H20.3558V25.653C20.5397 25.653 20.7161 25.5799 20.8462 25.4498C20.9762 25.3197 21.0493 25.1433 21.0493 24.9593V24.6125C21.0493 24.4285 20.9762 24.2521 20.8462 24.122C20.7161 23.9919 20.5397 23.9188 20.3558 23.9188H19.6624V23.572H21.0493V22.8783H20.3558V22.5315Z" fill="white"/>
<path d="M11.6878 15.9419H10.9944V16.6356H11.6878V15.9419Z" fill="white"/>
<path d="M11.6878 17.3289H10.9944V18.0225H11.6878V17.3289Z" fill="white"/>
<path d="M11.6878 18.7163H10.9944V19.41H11.6878V18.7163Z" fill="white"/>
<path d="M14.1151 16.635H13.4216V17.3287H14.1151V16.635Z" fill="white"/>
<path d="M16.8885 15.9419H16.1951V16.6356H16.8885V15.9419Z" fill="white"/>
<path d="M14.1151 18.0225H13.4216V18.7161H14.1151V18.0225Z" fill="white"/>
<path d="M16.8885 17.3289H16.1951V18.0225H16.8885V17.3289Z" fill="white"/>
<path d="M20.3558 16.9819H19.6624V17.6756H20.3558V16.9819Z" fill="white"/>
<path d="M20.3558 18.3694H19.6624V19.0631H20.3558V18.3694Z" fill="white"/>
<path d="M20.3558 19.7566H19.6624V20.4503H20.3558V19.7566Z" fill="white"/>
<path d="M20.3558 21.1436H19.6624V21.8372H20.3558V21.1436Z" fill="white"/>
<defs>
<linearGradient id="paint0_linear_2091_16269" x1="0" y1="0" x2="31" y2="31" gradientUnits="userSpaceOnUse">
<stop stop-color="#6155DE"/>
<stop offset="1" stop-color="#3A2FAC"/>
</linearGradient>
</defs>
</svg>
