<svg width="17" height="16" viewBox="0 0 17 16" fill="none" xmlns="http://www.w3.org/2000/svg">
<path d="M14.7877 6.64726C14.763 6.56677 14.7458 6.48421 14.7326 6.40083C14.7264 6.36221 14.7193 6.32382 14.7112 6.28566C14.6937 6.20274 14.6742 6.1203 14.653 6.03831C15.0024 5.48742 16.6726 2.61394 14.7721 0.769758C12.6626 -1.27702 10.1979 1.40576 10.1979 1.40576L10.2056 1.41767C9.09784 1.06706 7.89665 1.0259 6.72802 1.40565C6.71358 1.38992 4.257 -1.27101 2.15379 0.769758C0.0499151 2.81122 2.32177 6.11394 2.33365 6.13117C2.30944 6.20876 2.2899 6.2882 2.27702 6.36869C2.04943 7.782 0.5 8.21816 0.5 10.68C0.5 13.1418 2.12093 15.1667 5.4294 15.1667H6.78698C6.79308 15.1758 7.35219 16.001 8.49992 16C9.56544 15.9992 10.2691 15.1738 10.2752 15.1667H11.5706C14.879 15.1667 16.5 13.1893 16.5 10.68C16.5 8.38752 15.1562 7.8515 14.7877 6.64726Z" fill="white"/>
</svg>
