<svg width="24" height="16" viewBox="0 0 24 16" fill="none" xmlns="http://www.w3.org/2000/svg">
<path fill-rule="evenodd" clip-rule="evenodd" d="M5.80048 4.51557L6.16394 3.41814C6.23782 3.19493 6.41807 3.02125 6.64729 2.95276L7.77569 2.61363C7.93187 2.567 7.93314 2.35164 7.77822 2.30255L6.6549 1.94732C6.42694 1.87513 6.24921 1.69896 6.17872 1.47493L5.83213 0.372147C5.78444 0.219905 5.56408 0.218248 5.51383 0.370071L5.15038 1.46752C5.0765 1.69029 4.89625 1.86399 4.66702 1.93289L3.53863 2.27161C3.38244 2.31864 3.38075 2.53359 3.53609 2.58268L4.65942 2.9379C4.88738 3.0101 5.06511 3.18668 5.1356 3.41071L5.48219 4.51309C5.52988 4.66573 5.75024 4.66739 5.80048 4.51557Z" fill="#FAFAFA"/>
<path fill-rule="evenodd" clip-rule="evenodd" d="M23.4179 4.06893C22.9531 3.56429 22.2277 3.28016 21.5225 3.16365C20.8117 3.05174 20.0662 3.06212 19.3645 3.18318C17.9445 3.41638 16.6544 3.98724 15.5293 4.69148C14.945 5.0371 14.4467 5.43701 13.9305 5.84431C13.6817 6.05028 13.455 6.26964 13.2188 6.48586L12.5735 7.10925C11.8723 7.82087 11.1811 8.46904 10.5124 9.00628C9.84099 9.54105 9.21327 9.9472 8.59465 10.2308C7.97642 10.5159 7.31492 10.6836 6.45269 10.7104C5.59805 10.7397 4.58689 10.5899 3.50531 10.3428C2.41791 10.0967 1.27603 9.74587 0 9.44402C0.445238 10.6433 1.1157 11.703 1.97651 12.6719C2.84741 13.6239 3.9349 14.4914 5.33194 15.062C6.7088 15.6453 8.43906 15.8547 10.0569 15.5388C11.679 15.2356 13.1025 14.5069 14.2532 13.664C15.4068 12.8126 16.3401 11.8427 17.1269 10.8343C17.3441 10.5557 17.459 10.3998 17.6161 10.1821L18.0506 9.55726C18.3525 9.1708 18.6274 8.73078 18.9261 8.34788C19.512 7.54595 20.0896 6.74494 20.7608 6.00698C21.0986 5.63269 21.4549 5.27466 21.8754 4.9306C22.0851 4.76266 22.3117 4.59831 22.5628 4.45026C22.8175 4.29057 23.0866 4.16557 23.4179 4.06893Z" fill="#EC796B"/>
<path fill-rule="evenodd" clip-rule="evenodd" d="M23.4179 3.97134C22.9187 2.7378 21.9903 1.69945 20.7442 0.933245C19.5058 0.17544 17.7858 -0.211284 16.0812 0.118376C15.2392 0.277809 14.4234 0.584752 13.7075 0.993499C12.9949 1.40062 12.3562 1.89072 11.8034 2.41649C11.5274 2.68027 11.2769 2.95541 11.028 3.23213L10.3829 4.03724L9.38663 5.33329C8.11649 7.00081 6.74872 8.95503 4.50413 9.53407C2.30061 10.1025 1.3449 9.59908 0 9.3911C0.245916 10.0126 0.550514 10.6162 0.963459 11.1472C1.36871 11.689 1.8474 12.1977 2.44251 12.634C2.74326 12.8435 3.06078 13.0502 3.41342 13.2256C3.76449 13.395 4.14305 13.5441 4.54713 13.6562C5.3509 13.8719 6.25581 13.9476 7.13197 13.8314C8.00853 13.7169 8.84638 13.4451 9.57874 13.084C10.3165 12.7261 10.9592 12.2903 11.5331 11.8306C12.6738 10.9031 13.5611 9.87843 14.3106 8.84261C14.6876 8.32473 15.0299 7.79708 15.3464 7.26928L15.7189 6.64092C15.8327 6.45724 15.9479 6.27243 16.0648 6.10032C16.5369 5.40881 16.9986 4.85434 17.5593 4.43815C18.1123 4.01121 18.8823 3.69577 19.9112 3.6225C20.9359 3.54833 22.1188 3.68532 23.4179 3.97134Z" fill="#FAFAFA"/>
<path fill-rule="evenodd" clip-rule="evenodd" d="M17.8923 14.143C17.8923 14.995 18.6586 15.6858 19.6031 15.6858C20.5478 15.6858 21.3129 14.995 21.3129 14.143C21.3129 13.2911 20.5478 12.6001 19.6031 12.6001C18.6586 12.6001 17.8923 13.2911 17.8923 14.143Z" fill="#EC796B"/>
</svg>
