<svg width="18" height="18" viewBox="0 0 18 18" fill="none" xmlns="http://www.w3.org/2000/svg">
<path d="M13.1667 2.49967H16.5001C16.7211 2.49967 16.9331 2.58747 17.0893 2.74375C17.2456 2.90003 17.3334 3.11199 17.3334 3.33301V16.6663C17.3334 16.8874 17.2456 17.0993 17.0893 17.2556C16.9331 17.4119 16.7211 17.4997 16.5001 17.4997H1.50008C1.27907 17.4997 1.06711 17.4119 0.910826 17.2556C0.754545 17.0993 0.666748 16.8874 0.666748 16.6663V3.33301C0.666748 3.11199 0.754545 2.90003 0.910826 2.74375C1.06711 2.58747 1.27907 2.49967 1.50008 2.49967H4.83342V0.833008H6.50008V2.49967H11.5001V0.833008H13.1667V2.49967ZM2.33341 7.49967V15.833H15.6667V7.49967H2.33341ZM4.00008 10.833H8.16675V14.1663H4.00008V10.833Z" fill="#06D7F6"/>
</svg>
