<svg width="18" height="16" viewBox="0 0 18 16" fill="none" xmlns="http://www.w3.org/2000/svg">
<path d="M17.6218 12.9248L14.5374 8.76294C14.2023 8.31072 13.7061 8.03982 13.1777 7.98011C13.0575 7.96622 12.9501 7.89693 12.8899 7.79238C12.8287 7.68784 12.8222 7.56095 12.8706 7.45C13.0822 6.9658 13.095 6.40371 12.8674 5.88962L10.7806 1.15617C10.4714 0.453294 9.77219 0 8.99998 0C8.22783 0 7.52866 0.45436 7.21939 1.15617L5.13266 5.88962C4.90605 6.40371 4.91787 6.9658 5.12944 7.45C5.17776 7.56095 5.17025 7.68784 5.1101 7.79238C5.04889 7.89693 4.94256 7.96622 4.82228 7.98011C4.29389 8.03982 3.79772 8.31072 3.46265 8.76294L0.378217 12.9248C-0.0792922 13.5423 -0.125473 14.3699 0.26008 15.0344C0.646708 15.6978 1.39204 16.0722 2.15885 15.988L7.32998 15.4163C7.89166 15.3544 8.37604 15.0633 8.69177 14.6387C8.76375 14.5417 8.87867 14.4841 8.99998 14.4841C9.12136 14.4841 9.23521 14.5417 9.30825 14.6387C9.62398 15.0633 10.1084 15.3544 10.67 15.4163L15.8412 15.988C16.608 16.0733 17.3533 15.6989 17.7399 15.0344C18.1255 14.3699 18.0793 13.5423 17.6218 12.9248ZM6.48156 6.48371L8.57146 1.74492C8.6467 1.57533 8.81528 1.46548 9.00104 1.46548C9.18687 1.46548 9.35546 1.57533 9.4307 1.74492L11.5206 6.48371C11.5861 6.63303 11.5722 6.80581 11.4819 6.94233C11.3917 7.07885 11.2393 7.16097 11.0739 7.16097H6.92725C6.76294 7.16097 6.60936 7.07885 6.51915 6.94233C6.42893 6.80581 6.41497 6.63303 6.48048 6.48371H6.48156ZM7.55442 13.698C7.48032 13.8441 7.33644 13.9423 7.17318 13.9604L1.99668 14.5321C1.81196 14.5523 1.63153 14.4628 1.5381 14.3028C1.44466 14.1427 1.45648 13.9433 1.5671 13.794L4.65474 9.62797C4.75247 9.49678 4.90927 9.42213 5.07359 9.43172C5.23791 9.44025 5.38611 9.5309 5.46881 9.67274L5.47203 9.67809L7.53945 13.2341L7.54264 13.2394C7.62534 13.3813 7.62959 13.5541 7.55549 13.6991L7.55442 13.698ZM9.4253 12.0896C9.33721 12.24 9.17616 12.3339 8.99998 12.3339C8.82493 12.3339 8.66281 12.2411 8.57472 12.0907L6.98632 9.35918C6.89826 9.20882 6.89826 9.02215 6.98632 8.87178C7.07439 8.72135 7.2355 8.62752 7.41161 8.62752H10.5874C10.7624 8.62752 10.9245 8.71924 11.0126 8.87073C11.1007 9.02215 11.1007 9.20776 11.0126 9.35812L9.4253 12.0896ZM16.463 14.3028C16.3696 14.4628 16.1902 14.5534 16.0044 14.5331L10.8279 13.9614C10.6647 13.9433 10.5208 13.8452 10.4467 13.6991C10.3726 13.553 10.3768 13.3801 10.4595 13.2394L10.4628 13.2341L12.5301 9.67809L12.5333 9.67274C12.616 9.5309 12.7642 9.44025 12.9286 9.43172C13.0929 9.42319 13.2497 9.49678 13.3474 9.62797L16.4351 13.794C16.5457 13.9433 16.5564 14.1427 16.464 14.3028H16.463Z" fill="white"/>
</svg>
